<?xml version="1.0" standalone="no"?>
<!DOCTYPE svg PUBLIC "-//W3C//DTD SVG 20010904//EN"
 "http://www.w3.org/TR/2001/REC-SVG-20010904/DTD/svg10.dtd">
<svg version="1.0" xmlns="http://www.w3.org/2000/svg"
 width="32.000000pt" height="32.000000pt" viewBox="0 0 32.000000 32.000000"
 preserveAspectRatio="xMidYMid meet">
<metadata>
Created by potrace 1.10, written by Peter Selinger 2001-2011
</metadata>
<g transform="translate(0.000000,32.000000) scale(0.100000,-0.100000)"
fill="#ffffff" stroke="none">
<path d="M53 300 c-18 -11 -33 -23 -33 -28 0 -14 23 -32 42 -32 11 0 18 -7 18
-20 0 -34 28 -23 33 13 4 29 5 30 12 10 8 -24 31 -31 37 -12 2 5 16 12 32 13
34 4 48 23 35 48 -8 15 -20 18 -62 17 -29 -2 -59 0 -67 4 -8 4 -29 -2 -47 -13z
m47 -25 c0 -8 -7 -15 -15 -15 -16 0 -20 12 -8 23 11 12 23 8 23 -8z"/>
<path d="M237 220 c3 -11 9 -20 14 -20 5 0 9 -29 9 -65 0 -37 -4 -65 -10 -65
-5 0 -10 -7 -10 -15 0 -17 36 -20 46 -4 4 7 7 46 7 89 0 88 -5 100 -38 100
-18 0 -22 -4 -18 -20z"/>
<path d="M37 123 c2 -111 9 -131 40 -118 26 12 75 12 100 2 41 -18 48 1 45
117 -3 103 -4 106 -26 106 -13 0 -29 -7 -36 -15 -7 -9 -18 -14 -24 -12 -6 3
-19 -2 -28 -10 -15 -14 -19 -12 -41 11 -13 14 -26 26 -28 26 -2 0 -3 -48 -2
-107z m58 -14 c0 -50 -3 -64 -15 -64 -11 0 -16 14 -18 54 -4 61 3 84 21 78 8
-2 12 -25 12 -68z m50 0 c0 -50 -3 -64 -15 -64 -11 0 -16 14 -18 54 -4 61 3
84 21 78 8 -2 12 -25 12 -68z m50 0 c0 -50 -3 -64 -15 -64 -11 0 -16 14 -18
54 -4 61 3 84 21 78 8 -2 12 -25 12 -68z"/>
</g>
</svg>
